<?xml version="1.0" encoding="UTF-8"?>
<svg id="Layer_1" xmlns="http://www.w3.org/2000/svg" version="1.1" viewBox="0 0 695 220">
  <!-- Generator: Adobe Illustrator 29.0.0, SVG Export Plug-In . SVG Version: 2.1.0 Build 186)  -->
  <defs>
    <style>
      .st0 {
        fill: #90f;
      }

      .st1 {
        fill: #fff;
      }
    </style>
  </defs>
  <g>
    <path class="st0" d="M154.1,107.7c-.8-1.8-2.2-3.2-3.9-4.3l-.5-.3c-3.1-1.7-6.6-2.7-10.4-2.9h-.8c-8.8-.4-17.8,1.4-26.5,4.6-22.7,8.4-29.3,21-30.9,24.5l-.3.7c-.8,2-1,4.1-.7,6.1,0,.4.2.8.3,1.1,3,9.9,22.5,11.8,42.6,4.1,20.1-7.6,34.5-22.5,31.5-32.3,0-.6-.2-1-.4-1.3Z"/>
    <path class="st0" d="M110,1.9C50.3,1.9,1.9,50.3,1.9,110s48.4,108.1,108.1,108.1,108.1-48.4,108.1-108.1S169.7,1.9,110,1.9Z"/>
  </g>
  <path class="st1" d="M119.5,77c-15.9,0-27.5,4.1-35.3,10.9-1.6,1.3-2.7,2.8-4.1,4.2v-43.3h-35.9v122.4h35.8v-15.1c1.4,1.4,2.5,2.9,4.1,4.2,7.8,6.8,19.4,10.9,35.3,10.9,31,0,56.6-20.5,56.7-47.1,0-26.6-25.6-47.1-56.6-47.1ZM123.1,141.4c-20.1,7.7-39.6,5.8-42.6-4.1,0-.3-.2-.7-.3-1.1-.3-2-.1-4.1.7-6.1l.3-.7c1.6-3.5,8.2-16.1,30.9-24.5,8.7-3.2,17.7-5,26.5-4.6h.8c3.8.2,7.3,1.2,10.4,2.9l.5.3c1.7,1.1,3.1,2.5,3.9,4.3.2.3.4.7.4,1.3,3,9.8-11.4,24.7-31.5,32.3Z"/>
  <g>
    <path class="st0" d="M301.7,172.5V48.7h46.7c8.5,0,16.2,1.5,23.3,4.5,7,3,13.1,7.3,18.3,12.8,5.2,5.5,9.2,12.1,12,19.6,2.8,7.5,4.2,15.9,4.2,24.9s-1.4,17.4-4.2,25c-2.8,7.6-6.8,14.2-11.9,19.6-5.1,5.5-11.2,9.7-18.3,12.7-7.1,3-14.9,4.5-23.4,4.5h-46.7ZM315.5,161.5l-1.6-2.5h33.6c6.5,0,12.5-1.2,18-3.5s10.2-5.6,14.2-9.9c3.9-4.3,7-9.4,9.2-15.3,2.2-5.9,3.3-12.5,3.3-19.8s-1.1-13.9-3.3-19.8c-2.2-5.9-5.3-11-9.3-15.3-4-4.3-8.7-7.6-14.2-9.9-5.4-2.3-11.4-3.4-17.9-3.4h-34.1l2.1-2.1v101.5Z"/>
    <path class="st0" d="M468.7,174.3c-9.2,0-17.4-2.1-24.5-6.2-7.1-4.1-12.7-9.8-16.8-17.2-4.1-7.3-6.1-15.6-6.1-24.9s2-17.4,6.1-24.6c4.1-7.2,9.7-12.9,16.8-17,7.1-4.1,15.3-6.2,24.5-6.2s17.2,2.1,24.3,6.2c7.1,4.1,12.7,9.8,16.8,17,4.1,7.2,6.1,15.4,6.1,24.6s-2,17.6-6.1,24.9c-4.1,7.3-9.7,13-16.8,17.2-7.1,4.1-15.2,6.2-24.3,6.2ZM468.7,161.7c6.5,0,12.3-1.6,17.3-4.7,5.1-3.1,9-7.4,11.9-12.7,2.8-5.4,4.2-11.5,4.2-18.3s-1.4-12.9-4.2-18.2c-2.8-5.3-6.8-9.5-11.9-12.5-5.1-3-10.9-4.5-17.3-4.5s-12.3,1.5-17.4,4.5-9.1,7.2-12,12.6c-2.9,5.4-4.3,11.4-4.2,18.1-.1,6.8,1.3,12.9,4.2,18.3,2.9,5.4,6.9,9.6,12,12.7,5.1,3.1,10.9,4.7,17.4,4.7Z"/>
    <path class="st0" d="M574.1,174.3c-8.7,0-16.5-2.1-23.4-6.3-6.8-4.2-12.2-9.9-16.2-17.2-4-7.3-5.9-15.5-5.9-24.7s2-17.4,5.9-24.7c3.9-7.3,9.3-12.9,16.2-17.1,6.8-4.1,14.7-6.2,23.5-6.2s15.1,1.6,21.6,4.7c6.5,3.1,11.7,7.5,15.6,13l-7.8,9.6c-2.2-2.9-4.9-5.5-8-7.8-3.1-2.2-6.5-4-10.1-5.2-3.6-1.2-7.2-1.9-10.7-1.9-6.3,0-11.9,1.6-16.8,4.7-5,3.1-8.9,7.3-11.8,12.6-2.9,5.3-4.3,11.4-4.3,18.2s1.4,12.9,4.3,18.3c2.9,5.4,6.8,9.6,11.8,12.6,5,3.1,10.5,4.6,16.6,4.6s7-.6,10.4-1.7c3.4-1.1,6.7-2.7,9.7-4.9,3.1-2.1,5.9-4.8,8.5-8l7.8,9.6c-4,5.3-9.4,9.6-16.1,12.7-6.7,3.2-13.7,4.8-20.9,4.8Z"/>
    <path class="st0" d="M658.5,174.3c-7.9,0-15-1.5-21.2-4.4-6.3-2.9-11.2-6.8-14.9-11.7l9.4-8.1c3.4,4.1,7.5,7.3,12.1,9.4,4.7,2.1,9.9,3.2,15.7,3.2s5.6-.3,8-1c2.4-.6,4.4-1.6,6.2-2.9,1.8-1.3,3.1-2.8,4.1-4.6.9-1.8,1.4-3.7,1.4-5.8,0-3.9-1.7-7.1-5.1-9.7-1.5-1.1-3.7-2.2-6.5-3.3-2.8-1.1-6.3-2.2-10.3-3.3-6.6-1.9-12.1-3.8-16.5-5.7-4.4-1.9-7.8-4.2-10.3-6.8-1.8-2.1-3.1-4.4-4-6.9s-1.3-5.2-1.3-8.1.8-7.3,2.4-10.4c1.6-3.2,3.8-6,6.7-8.4,2.9-2.4,6.3-4.2,10.3-5.5,4-1.2,8.2-1.9,12.8-1.9s8.7.6,12.9,1.8c4.2,1.2,8.2,2.9,11.9,5.1,3.7,2.2,6.8,4.9,9.4,8l-8.1,8.8c-2.2-2.4-4.7-4.5-7.4-6.4-2.7-1.9-5.6-3.4-8.6-4.4-3-1.1-6.1-1.6-9.3-1.6s-5.5.4-7.9,1.1c-2.4.7-4.5,1.7-6.2,2.9-1.7,1.2-3,2.7-3.9,4.5s-1.3,3.7-1.3,5.8.4,3.4,1.1,4.8c.7,1.4,1.7,2.7,3,3.7,1.7,1.3,4,2.5,7,3.6,3,1.1,6.8,2.3,11.2,3.5,5.2,1.4,9.6,2.9,13.2,4.3,3.6,1.5,6.6,3.2,8.9,5.2,3.2,2.4,5.5,5.1,6.8,8.1,1.4,3.1,2,6.5,2,10.4s-1.4,9.8-4.3,13.8c-2.9,4-6.9,7.2-11.9,9.5-5.1,2.3-10.9,3.4-17.3,3.4Z"/>
  </g>
</svg>