<?xml version="1.0" encoding="utf-8"?>
<!-- Generator: Adobe Illustrator 28.1.0, SVG Export Plug-In . SVG Version: 6.00 Build 0)  -->
<svg version="1.1" id="Layer_1" xmlns="http://www.w3.org/2000/svg" xmlns:xlink="http://www.w3.org/1999/xlink" x="0px" y="0px"
	 viewBox="0 0 220 220" style="enable-background:new 0 0 220 220;" xml:space="preserve">
<style type="text/css">
	.st0{fill:#9900FF;}
</style>
<g>
	<path class="st0" d="M154.1,107.7c-0.8-1.8-2.2-3.2-3.9-4.3l-0.5-0.3c-3.1-1.7-6.6-2.7-10.4-2.9l-0.5,0l-0.3,0
		c-8.8-0.4-17.8,1.4-26.5,4.6c-22.7,8.4-29.3,21-30.9,24.5l-0.3,0.7c-0.8,2-1,4.1-0.7,6.1c0.1,0.4,0.2,0.8,0.3,1.1
		c3,9.9,22.5,11.8,42.6,4.1c20.1-7.6,34.5-22.5,31.5-32.3C154.5,108.4,154.3,108,154.1,107.7z"/>
	<path class="st0" d="M110,1.9C50.3,1.9,1.9,50.3,1.9,110c0,59.7,48.4,108.1,108.1,108.1c59.7,0,108.1-48.4,108.1-108.1
		C218.1,50.3,169.7,1.9,110,1.9z M119.3,171.1c-15.9,0-27.5-4.1-35.3-10.9c-1.6-1.3-2.7-2.8-4.1-4.2v15.1H44.1l0-122.4h35.8L80,92
		c1.4-1.4,2.5-2.9,4.1-4.2c7.8-6.8,19.4-10.9,35.3-10.9c31,0,56.6,20.5,56.6,47.1C175.9,150.6,150.3,171.1,119.3,171.1z"/>
</g>
</svg>
